<svg width="200" height="120" viewBox="0 0 200 120" fill="none" xmlns="http://www.w3.org/2000/svg">
<path fill-rule="evenodd" clip-rule="evenodd" d="M61.7341 28.0177C82.5053 28.0273 116.495 28.0273 137.266 28.0177C158.037 28.008 141.042 28 99.5 28C57.9576 28 40.963 28.008 61.7341 28.0177ZM150.337 36.265C150.285 36.2789 150.03 36.3285 149.771 36.3747C148.334 36.632 146.831 37.4674 145.708 38.6319C145.199 39.1595 144.664 39.9427 138.982 48.4692C137.6 50.5451 135.942 53.0313 135.299 53.9949C130.738 60.828 130.124 61.7626 129.962 62.1157C129.725 62.6358 129.688 63.7628 129.888 64.4304C130.435 66.2634 132.375 67.1134 133.9 66.1885C134.541 65.8001 134.065 66.4858 146.27 48.3704C148.089 45.6706 149.184 44.1092 149.5 43.7624C150.669 42.4819 151.53 42.4911 152.753 43.7973C153.358 44.4434 153.765 45.0425 164.764 61.457C167.396 65.386 167.786 65.9081 168.299 66.2024C170.752 67.607 173.408 64.723 172.153 62.0173C172.037 61.7668 171.011 60.1747 169.873 58.4789C168.735 56.7834 166.979 54.1664 165.971 52.6635C162.042 46.8069 158.091 40.9205 157.505 40.0515C156.085 37.9449 154.663 36.8805 152.633 36.4063C152.181 36.3003 150.573 36.2015 150.337 36.265ZM28.3329 37.7225C26.6051 38.3939 25.9026 40.7318 26.9177 42.4344C27.0343 42.6303 28.3454 44.6019 29.8309 46.8162C31.3163 49.03 33.1125 51.7088 33.8229 52.7686C40.0294 62.03 41.949 64.8563 42.3337 65.299C44.9901 68.3557 49.3231 68.721 52.4329 66.1511C53.553 65.2258 53.5269 65.2616 59.431 56.3769C60.6605 54.5271 61.9622 52.5723 62.3238 52.0329C62.6854 51.4935 63.8296 49.7762 64.8666 48.2165C65.9036 46.6568 67.1977 44.718 67.7428 43.9074C68.972 42.0787 69.1158 41.7781 69.1584 40.9428C69.3113 37.9588 66.1026 36.3928 64.2898 38.5671C64.0867 38.8105 60.7779 43.6741 56.9369 49.3751C48.7051 61.5923 48.9418 61.2833 47.8138 61.2791C46.8761 61.2753 46.1751 60.5783 44.2925 57.7785C43.593 56.738 40.4514 52.0556 37.3106 47.3736C34.1702 42.6912 31.4405 38.6773 31.245 38.4536C30.5107 37.6141 29.3571 37.3244 28.3329 37.7225ZM77.2588 37.6624C76.3355 37.9891 75.628 38.7559 75.3132 39.7711C75.1686 40.2382 75.0712 61.5406 75.2052 63.4324C75.4717 67.1987 79.9976 67.7671 80.8458 64.1408C80.9666 63.6237 80.9893 40.7069 80.8696 40.0726C80.5348 38.301 78.7749 37.1264 77.2588 37.6624ZM88.9149 37.7003C87.696 38.1341 87.0112 39.2065 87.0112 40.6805C87.0112 41.8689 86.9787 41.8067 89.785 45.9829C91.0968 47.9349 94.4494 52.9321 97.235 57.0882C102.716 65.2658 102.97 65.6138 104.043 66.4097C107.156 68.7181 111.216 68.2367 113.908 65.2405C114.296 64.8088 115.239 63.4492 117.333 60.3009C118.923 57.9113 120.539 55.4835 120.924 54.9055C121.31 54.3274 122.444 52.6248 123.446 51.1219C124.447 49.619 126.186 47.0117 127.31 45.3275C129.506 42.0379 129.624 41.8197 129.683 40.9592C129.83 38.7845 127.951 37.0667 126.079 37.6662C125.133 37.9689 125.174 37.9155 120.381 45.0261C118.121 48.3788 114.975 53.0452 113.39 55.3961C109.682 60.8961 109.347 61.2838 108.308 61.2804C107.127 61.2766 107.257 61.4469 98.9998 49.125C92.0731 38.7891 91.8149 38.4158 91.3471 38.053C90.7307 37.575 89.6907 37.4241 88.9149 37.7003ZM150.278 55.3297C147.497 56.0015 146.41 59.8523 148.355 62.1468C150.361 64.5153 153.915 63.5224 154.625 60.3946C155.303 57.4098 152.962 54.6818 150.278 55.3297ZM24 83.3177V91.375H99.5H175V83.3177V75.2599H99.5H24V83.3177ZM83.0512 78.0799C83.5536 78.3666 83.9077 78.7118 85.9296 80.8848C86.9742 82.0077 88.1565 83.2773 88.5567 83.7061C89.8277 85.0678 89.7711 85.1745 89.8107 81.3283L89.8424 78.2762L89.9855 78.1169C90.2286 77.8466 91.6454 77.8743 91.8609 78.1539L92.013 78.3506V81.8114C92.013 86.2932 91.9009 86.8023 90.7764 87.4384C89.5336 88.1413 88.8258 87.7154 85.8488 84.475C82.5963 80.934 82.5974 80.9353 82.4268 80.9353C82.1448 80.9353 82.135 81.0387 82.1346 84.066C82.1342 87.723 82.1663 87.5923 81.2698 87.6019C80.3173 87.6124 80.2513 87.6023 80.0874 87.4195L79.933 87.2475V83.5434C79.933 79.4349 79.933 79.4344 80.3423 78.8169C80.9334 77.9244 82.1826 77.5847 83.0512 78.0799ZM38.382 78.1539C38.6134 78.4536 38.6134 79.9137 38.382 80.213L38.2302 80.4098L36.0385 80.4447C34.8327 80.464 33.8007 80.5052 33.7448 80.5363C33.5153 80.6637 33.5005 80.8739 33.5005 84.0248C33.5005 87.8949 33.5949 87.5914 32.3899 87.5914C31.2397 87.5914 31.3367 87.9105 31.2982 84.0025L31.2669 80.799L31.1238 80.6393C30.9815 80.4808 30.9671 80.4795 28.7501 80.4447C26.0562 80.4026 26.2461 80.4791 26.2118 79.4222C26.1759 78.3397 26.2601 78.082 26.6791 77.9904C26.8146 77.9605 29.4692 77.9412 32.5779 77.9471L38.2302 77.9576L38.382 78.1539ZM51.5945 78.1539C51.8259 78.4536 51.8259 79.9137 51.5945 80.213L51.4427 80.4098L46.8387 80.4447L42.2348 80.48L42.083 80.6763C41.8958 80.9193 41.8875 81.2199 42.0638 81.3973C42.1906 81.5255 42.3858 81.5322 46.8508 81.5659L51.5058 81.6007L51.6258 81.7664C51.7995 82.0052 51.8055 83.5707 51.6338 83.807C51.4465 84.0647 51.1294 84.0819 46.576 84.0853L42.1921 84.0882L42.0607 84.2745C41.9139 84.4822 41.9343 84.6692 42.1283 84.8941C42.2465 85.0308 42.3529 85.035 46.8459 85.069L51.4427 85.1043L51.5945 85.3007C51.8301 85.6059 51.827 87.158 51.59 87.4216L51.4337 87.5956L46.5096 87.5763L41.5851 87.5565L41.2393 87.393C39.8773 86.7494 39.6459 86.1343 39.6157 83.0721C39.587 80.1735 39.673 79.7022 40.3786 78.9031C41.2287 77.9408 41.257 77.9366 47.0173 77.9483L51.4427 77.9576L51.5945 78.1539ZM64.7991 78.0219C65.2419 78.2279 65.3038 80.0499 64.8772 80.3215C64.7704 80.3896 63.6651 80.4177 60.0686 80.4447C55.3997 80.48 55.3989 80.48 55.2642 80.63C54.8889 81.0479 54.9139 84.4246 55.2951 84.8496L55.4612 85.0341L60.1524 85.069L64.844 85.1043L64.9957 85.3007C65.2932 85.6862 65.1905 87.4073 64.8617 87.5481C64.6858 87.6234 55.2536 87.5977 54.8848 87.5212C54.0577 87.3493 53.2891 86.6733 52.9935 85.8573C52.8251 85.3932 52.7338 81.0261 52.8769 80.2836C53.112 79.0624 54.0464 78.1472 55.2381 77.9714C55.8451 77.8815 64.5971 77.9281 64.7991 78.0219ZM68.2453 77.9958C68.6073 78.1081 68.6326 78.2157 68.6692 79.8031C68.7017 81.1955 68.7058 81.2312 68.8508 81.362C69.0758 81.5646 76.0606 81.5709 76.2849 81.3687C76.4759 81.1967 76.5272 80.7919 76.5318 79.4235C76.5367 77.9744 76.5374 77.9731 77.4985 77.9357C78.9028 77.8815 78.8096 77.5195 78.787 82.9439L78.7688 87.2383L78.6118 87.4132C78.4631 87.5788 78.4136 87.5889 77.6994 87.6007C76.454 87.6208 76.4729 87.649 76.4717 85.7909C76.4702 83.7738 76.856 83.9571 72.6031 83.9525C68.2906 83.9478 68.6707 83.7784 68.6707 85.7051C68.6707 87.6192 68.6767 87.6095 67.5144 87.599C66.2555 87.5876 66.3264 87.9231 66.3555 82.1145L66.3744 78.354L66.5239 78.177C66.6058 78.0795 66.7334 77.9866 66.807 77.9706C67.0856 77.9096 68.0199 77.926 68.2453 77.9958ZM103.181 77.9933C104.132 78.14 104.894 78.7816 105.235 79.7199C105.463 80.3522 105.466 85.2952 105.238 85.9241C104.961 86.6884 104.351 87.2534 103.556 87.4842C103.036 87.6351 95.6227 87.6435 95.118 87.4939C94.3494 87.266 93.6605 86.6153 93.386 85.8573C93.2105 85.3734 93.124 81.0731 93.2739 80.3047C93.5185 79.0515 94.4306 78.1484 95.6306 77.9714C96.0466 77.9096 102.767 77.9294 103.181 77.9933ZM108.449 78.1173L108.591 78.2762L108.623 81.375C108.657 84.6877 108.668 84.8025 108.982 84.9732C109.044 85.0068 110.548 85.0497 112.325 85.069L115.555 85.1043L115.706 85.3007C115.941 85.6042 115.939 87.1576 115.704 87.4195L115.549 87.5914H112.131C108.044 87.5914 107.854 87.5595 107.121 86.7431C106.422 85.9645 106.389 85.7438 106.389 81.7693C106.389 78.1573 106.391 78.1426 106.729 77.9967C107.064 77.8525 108.288 77.9382 108.449 78.1173ZM127.498 78.1182C128.923 78.6592 129.26 79.561 129.259 82.8254C129.258 86.1591 128.901 87.0357 127.359 87.4909C126.839 87.644 119.441 87.6398 118.914 87.4859C117.943 87.2017 117.338 86.5261 117.085 85.4419C116.968 84.94 116.949 80.955 117.061 80.3606C117.291 79.1427 118.162 78.2111 119.271 77.9979C120.058 77.8466 127.052 77.9487 127.498 78.1182ZM142.572 78.1539C142.803 78.4536 142.803 79.9137 142.572 80.213L142.42 80.4098L137.697 80.4447L132.974 80.48L132.806 80.6666C132.389 81.1324 132.414 84.4494 132.839 84.8723L133.037 85.069H136.468C140.412 85.069 140.333 85.0812 140.333 84.4695C140.333 84.1273 140.144 84.079 138.812 84.0828C136.616 84.0882 136.621 84.0912 136.621 82.7812C136.621 81.9493 136.628 81.9022 136.775 81.7378L136.93 81.5659H139.604C141.457 81.5659 142.325 81.5902 142.433 81.6449C142.717 81.7887 142.729 81.932 142.71 84.7104L142.692 87.3236L142.544 87.4577C142.35 87.6318 132.824 87.6675 132.248 87.4964C130.692 87.0335 130.268 86.041 130.269 82.8619C130.27 80.2542 130.395 79.6614 131.111 78.8635C131.943 77.9374 131.956 77.9357 137.712 77.9475L142.42 77.9576L142.572 78.1539ZM145.962 78.0223C146.314 78.1859 146.316 78.2296 146.296 82.9612L146.279 87.2299L146.126 87.4106C145.976 87.5885 145.958 87.5914 145.099 87.5914C144.137 87.5914 144.028 87.5582 143.926 87.2324C143.835 86.9411 143.828 78.5751 143.919 78.309C144.044 77.942 145.385 77.7537 145.962 78.0223ZM159.433 78.1539C159.665 78.4536 159.665 79.9137 159.434 80.213L159.282 80.4098L154.678 80.4447L150.074 80.48L149.922 80.6763C149.735 80.9193 149.727 81.2199 149.903 81.3973C150.03 81.5255 150.225 81.5322 154.682 81.5659C159.033 81.5986 159.336 81.6087 159.442 81.7256C159.617 81.9202 159.645 83.5699 159.478 83.8003C159.268 84.0887 159.495 84.0815 150.29 84.0882C149.794 84.0882 149.62 84.4918 149.954 84.8643L150.138 85.069L154.532 85.0695C160.031 85.0699 159.586 84.9538 159.586 86.384C159.586 87.3484 159.49 87.5872 159.101 87.5952C156.582 87.649 149.66 87.57 149.364 87.4842C148.435 87.2147 147.773 86.4736 147.535 85.4365C147.36 84.6705 147.426 80.4018 147.62 79.8872C148.031 78.8059 148.836 78.1358 149.896 77.9937C150.121 77.9639 152.325 77.9433 154.794 77.9483L159.282 77.9576L159.433 78.1539ZM173.031 78.0459C173.213 78.1615 173.3 78.5335 173.3 79.1835C173.3 80.5216 173.791 80.403 168.066 80.4447C162.712 80.4837 163.02 80.4535 163.032 80.9382C163.039 81.1917 163.169 81.38 163.412 81.4872C163.523 81.536 164.986 81.5701 167.67 81.5856C171.271 81.607 171.803 81.6243 172.123 81.7277C173.239 82.0888 173.684 82.6791 173.82 83.9802C174.034 86.0162 173.449 87.1786 172.041 87.5157C171.61 87.6187 161.522 87.6255 161.349 87.5229C161.042 87.3396 160.982 85.7249 161.27 85.4037L161.413 85.2443L166.24 85.2094C171.593 85.1704 171.298 85.1981 171.478 84.7159C171.558 84.5002 171.448 84.19 171.268 84.1227C171.227 84.1072 169.297 84.0815 166.978 84.066C162.41 84.0344 162.367 84.0311 161.669 83.6367C160.858 83.1793 160.456 82.0417 160.565 80.5149C160.687 78.8055 161.289 78.1518 162.889 77.9912C163.82 77.8975 172.875 77.9462 173.031 78.0459ZM95.7424 80.5821C95.4592 80.7755 95.4419 80.9016 95.4419 82.7568C95.4419 85.3217 95.0221 85.0787 99.4079 85.0535L102.782 85.0341L102.968 84.8017L103.155 84.5692L103.136 82.7186L103.118 80.868L102.943 80.6742L102.769 80.48L99.3569 80.4615C96.0519 80.4438 95.939 80.4476 95.7424 80.5821ZM119.563 80.5497C119.271 80.7267 119.248 80.9071 119.269 82.8485L119.287 84.6457L119.462 84.8399L119.636 85.0341L123.032 85.0535C127.409 85.0783 126.963 85.3305 126.963 82.827C126.963 80.9432 126.93 80.7301 126.611 80.5464C126.352 80.3971 119.811 80.4001 119.563 80.5497Z" fill="white"/>
</svg>
